<?xml version="1.0" encoding="UTF-8" standalone="no"?>
<!DOCTYPE svg PUBLIC "-//W3C//DTD SVG 1.1//EN"
 "http://www.w3.org/Graphics/SVG/1.1/DTD/svg11.dtd">
<!-- Generated by graphviz version 2.40.1 (20161225.0304)
 -->
<!-- Title: %3 Pages: 1 -->
<svg width="1846pt" height="188pt"
 viewBox="0.00 0.00 1846.08 188.00" xmlns="http://www.w3.org/2000/svg" xmlns:xlink="http://www.w3.org/1999/xlink">
<g id="graph0" class="graph" transform="scale(1 1) rotate(0) translate(4 184)">
<title>%3</title>
<polygon fill="#ffffff" stroke="transparent" points="-4,4 -4,-184 1842.0796,-184 1842.0796,4 -4,4"/>
<!-- [None, None, None, None, None] -->
<g id="node1" class="node">
<title>[None, None, None, None, None]</title>
<ellipse fill="none" stroke="#000000" cx="1187.2405" cy="-162" rx="138.3755" ry="18"/>
<text text-anchor="middle" x="1187.2405" y="-158.3" font-family="Times,serif" font-size="14.00" fill="#000000">[None, None, None, None, None]</text>
</g>
<!-- [5, None, None, None, None] -->
<g id="node2" class="node">
<title>[5, None, None, None, None]</title>
<ellipse fill="none" stroke="#000000" cx="571.2405" cy="-90" rx="122.6784" ry="18"/>
<text text-anchor="middle" x="571.2405" y="-86.3" font-family="Times,serif" font-size="14.00" fill="#000000">[5, None, None, None, None]</text>
</g>
<!-- [None, None, None, None, None]&#45;&gt;[5, None, None, None, None] -->
<g id="edge1" class="edge">
<title>[None, None, None, None, None]&#45;&gt;[5, None, None, None, None]</title>
<path fill="none" stroke="#000000" d="M1084.1359,-149.9488C971.3468,-136.7657 791.4678,-115.7409 677.4609,-102.4154"/>
<polygon fill="#000000" stroke="#000000" points="677.6608,-98.915 667.322,-101.2303 676.848,-105.8677 677.6608,-98.915"/>
</g>
<!-- [4, None, None, None, None] -->
<g id="node3" class="node">
<title>[4, None, None, None, None]</title>
<ellipse fill="none" stroke="#000000" cx="923.2405" cy="-90" rx="122.6784" ry="18"/>
<text text-anchor="middle" x="923.2405" y="-86.3" font-family="Times,serif" font-size="14.00" fill="#000000">[4, None, None, None, None]</text>
</g>
<!-- [None, None, None, None, None]&#45;&gt;[4, None, None, None, None] -->
<g id="edge2" class="edge">
<title>[None, None, None, None, None]&#45;&gt;[4, None, None, None, None]</title>
<path fill="none" stroke="#000000" d="M1127.6646,-145.752C1087.2575,-134.7319 1033.7365,-120.1353 991.594,-108.6419"/>
<polygon fill="#000000" stroke="#000000" points="992.2591,-105.1955 981.6905,-105.9409 990.4172,-111.9488 992.2591,-105.1955"/>
</g>
<!-- [3, None, None, None, None] -->
<g id="node4" class="node">
<title>[3, None, None, None, None]</title>
<ellipse fill="none" stroke="#000000" cx="1187.2405" cy="-90" rx="122.6784" ry="18"/>
<text text-anchor="middle" x="1187.2405" y="-86.3" font-family="Times,serif" font-size="14.00" fill="#000000">[3, None, None, None, None]</text>
</g>
<!-- [None, None, None, None, None]&#45;&gt;[3, None, None, None, None] -->
<g id="edge3" class="edge">
<title>[None, None, None, None, None]&#45;&gt;[3, None, None, None, None]</title>
<path fill="none" stroke="#000000" d="M1187.2405,-143.8314C1187.2405,-136.131 1187.2405,-126.9743 1187.2405,-118.4166"/>
<polygon fill="#000000" stroke="#000000" points="1190.7406,-118.4132 1187.2405,-108.4133 1183.7406,-118.4133 1190.7406,-118.4132"/>
</g>
<!-- [2, None, None, None, None] -->
<g id="node5" class="node">
<title>[2, None, None, None, None]</title>
<ellipse fill="none" stroke="#000000" cx="1451.2405" cy="-90" rx="122.6784" ry="18"/>
<text text-anchor="middle" x="1451.2405" y="-86.3" font-family="Times,serif" font-size="14.00" fill="#000000">[2, None, None, None, None]</text>
</g>
<!-- [None, None, None, None, None]&#45;&gt;[2, None, None, None, None] -->
<g id="edge4" class="edge">
<title>[None, None, None, None, None]&#45;&gt;[2, None, None, None, None]</title>
<path fill="none" stroke="#000000" d="M1246.8164,-145.752C1287.2235,-134.7319 1340.7445,-120.1353 1382.8869,-108.6419"/>
<polygon fill="#000000" stroke="#000000" points="1384.0637,-111.9488 1392.7904,-105.9409 1382.2219,-105.1955 1384.0637,-111.9488"/>
</g>
<!-- [1, None, None, None, None] -->
<g id="node6" class="node">
<title>[1, None, None, None, None]</title>
<ellipse fill="none" stroke="#000000" cx="1715.2405" cy="-90" rx="122.6784" ry="18"/>
<text text-anchor="middle" x="1715.2405" y="-86.3" font-family="Times,serif" font-size="14.00" fill="#000000">[1, None, None, None, None]</text>
</g>
<!-- [None, None, None, None, None]&#45;&gt;[1, None, None, None, None] -->
<g id="edge5" class="edge">
<title>[None, None, None, None, None]&#45;&gt;[1, None, None, None, None]</title>
<path fill="none" stroke="#000000" d="M1282.8573,-148.9613C1376.8565,-136.1433 1519.7359,-116.6597 1615.2249,-103.6385"/>
<polygon fill="#000000" stroke="#000000" points="1615.7451,-107.1 1625.1805,-102.2809 1614.7992,-100.1642 1615.7451,-107.1"/>
</g>
<!-- [5, 4, None, None, None] -->
<g id="node7" class="node">
<title>[5, 4, None, None, None]</title>
<ellipse fill="none" stroke="#000000" cx="107.2405" cy="-18" rx="107.4815" ry="18"/>
<text text-anchor="middle" x="107.2405" y="-14.3" font-family="Times,serif" font-size="14.00" fill="#000000">[5, 4, None, None, None]</text>
</g>
<!-- [5, None, None, None, None]&#45;&gt;[5, 4, None, None, None] -->
<g id="edge6" class="edge">
<title>[5, None, None, None, None]&#45;&gt;[5, 4, None, None, None]</title>
<path fill="none" stroke="#000000" d="M486.6753,-76.8778C404.4129,-64.113 279.9235,-44.7956 196.1974,-31.8037"/>
<polygon fill="#000000" stroke="#000000" points="196.613,-28.3263 186.1945,-30.2515 195.5396,-35.2436 196.613,-28.3263"/>
</g>
<!-- [5, 3, None, None, None] -->
<g id="node8" class="node">
<title>[5, 3, None, None, None]</title>
<ellipse fill="none" stroke="#000000" cx="339.2405" cy="-18" rx="107.4815" ry="18"/>
<text text-anchor="middle" x="339.2405" y="-14.3" font-family="Times,serif" font-size="14.00" fill="#000000">[5, 3, None, None, None]</text>
</g>
<!-- [5, None, None, None, None]&#45;&gt;[5, 3, None, None, None] -->
<g id="edge7" class="edge">
<title>[5, None, None, None, None]&#45;&gt;[5, 3, None, None, None]</title>
<path fill="none" stroke="#000000" d="M518.5961,-73.6621C483.3743,-62.7312 436.9111,-48.3116 400.1013,-36.8878"/>
<polygon fill="#000000" stroke="#000000" points="401.0673,-33.523 390.4793,-33.9017 398.9925,-40.2085 401.0673,-33.523"/>
</g>
<!-- [5, 2, None, None, None] -->
<g id="node9" class="node">
<title>[5, 2, None, None, None]</title>
<ellipse fill="none" stroke="#000000" cx="571.2405" cy="-18" rx="107.4815" ry="18"/>
<text text-anchor="middle" x="571.2405" y="-14.3" font-family="Times,serif" font-size="14.00" fill="#000000">[5, 2, None, None, None]</text>
</g>
<!-- [5, None, None, None, None]&#45;&gt;[5, 2, None, None, None] -->
<g id="edge8" class="edge">
<title>[5, None, None, None, None]&#45;&gt;[5, 2, None, None, None]</title>
<path fill="none" stroke="#000000" d="M571.2405,-71.8314C571.2405,-64.131 571.2405,-54.9743 571.2405,-46.4166"/>
<polygon fill="#000000" stroke="#000000" points="574.7406,-46.4132 571.2405,-36.4133 567.7406,-46.4133 574.7406,-46.4132"/>
</g>
<!-- [5, 1, None, None, None] -->
<g id="node10" class="node">
<title>[5, 1, None, None, None]</title>
<ellipse fill="none" stroke="#000000" cx="803.2405" cy="-18" rx="107.4815" ry="18"/>
<text text-anchor="middle" x="803.2405" y="-14.3" font-family="Times,serif" font-size="14.00" fill="#000000">[5, 1, None, None, None]</text>
</g>
<!-- [5, None, None, None, None]&#45;&gt;[5, 1, None, None, None] -->
<g id="edge9" class="edge">
<title>[5, None, None, None, None]&#45;&gt;[5, 1, None, None, None]</title>
<path fill="none" stroke="#000000" d="M623.8849,-73.6621C659.1067,-62.7312 705.5699,-48.3116 742.3797,-36.8878"/>
<polygon fill="#000000" stroke="#000000" points="743.4885,-40.2085 752.0017,-33.9017 741.4136,-33.523 743.4885,-40.2085"/>
</g>
<!-- [4, 5, None, None, None] -->
<g id="node11" class="node">
<title>[4, 5, None, None, None]</title>
<polygon fill="none" stroke="#000000" points="1093.7405,-36 928.7405,-36 928.7405,0 1093.7405,0 1093.7405,-36"/>
<text text-anchor="middle" x="1011.2405" y="-14.3" font-family="Times,serif" font-size="14.00" fill="#000000">[4, 5, None, None, None]</text>
</g>
<!-- [4, None, None, None, None]&#45;&gt;[4, 5, None, None, None] -->
<g id="edge10" class="edge">
<title>[4, None, None, None, None]&#45;&gt;[4, 5, None, None, None]</title>
<path fill="none" stroke="#000000" d="M944.9933,-72.2022C955.9107,-63.2698 969.3079,-52.3085 981.191,-42.586"/>
<polygon fill="#000000" stroke="#000000" points="983.6034,-45.1344 989.1267,-36.0931 979.1707,-39.7167 983.6034,-45.1344"/>
</g>
</g>
</svg>
