<?xml version="1.0" encoding="UTF-8" standalone="no"?>
<!DOCTYPE svg PUBLIC "-//W3C//DTD SVG 1.1//EN"
 "http://www.w3.org/Graphics/SVG/1.1/DTD/svg11.dtd">
<!-- Generated by graphviz version 2.40.1 (20161225.0304)
 -->
<!-- Title: %3 Pages: 1 -->
<svg width="3050pt" height="404pt"
 viewBox="0.00 0.00 3050.09 404.00" xmlns="http://www.w3.org/2000/svg" xmlns:xlink="http://www.w3.org/1999/xlink">
<g id="graph0" class="graph" transform="scale(1 1) rotate(0) translate(4 400)">
<title>%3</title>
<polygon fill="#ffffff" stroke="transparent" points="-4,4 -4,-400 3046.0865,-400 3046.0865,4 -4,4"/>
<!-- [None, None, None, None, None] -->
<g id="node1" class="node">
<title>[None, None, None, None, None]</title>
<ellipse fill="none" stroke="#000000" cx="1846.0433" cy="-378" rx="138.3755" ry="18"/>
<text text-anchor="middle" x="1846.0433" y="-374.3" font-family="Times,serif" font-size="14.00" fill="#000000">[None, None, None, None, None]</text>
</g>
<!-- [1, None, None, None, None] -->
<g id="node2" class="node">
<title>[1, None, None, None, None]</title>
<ellipse fill="none" stroke="#000000" cx="1846.0433" cy="-306" rx="122.6784" ry="18"/>
<text text-anchor="middle" x="1846.0433" y="-302.3" font-family="Times,serif" font-size="14.00" fill="#000000">[1, None, None, None, None]</text>
</g>
<!-- [None, None, None, None, None]&#45;&gt;[1, None, None, None, None] -->
<g id="edge1" class="edge">
<title>[None, None, None, None, None]&#45;&gt;[1, None, None, None, None]</title>
<path fill="none" stroke="#000000" d="M1846.0433,-359.8314C1846.0433,-352.131 1846.0433,-342.9743 1846.0433,-334.4166"/>
<polygon fill="#000000" stroke="#000000" points="1849.5434,-334.4132 1846.0433,-324.4133 1842.5434,-334.4133 1849.5434,-334.4132"/>
</g>
<!-- [1, 2, None, None, None] -->
<g id="node3" class="node">
<title>[1, 2, None, None, None]</title>
<ellipse fill="none" stroke="#000000" cx="671.0433" cy="-234" rx="107.4815" ry="18"/>
<text text-anchor="middle" x="671.0433" y="-230.3" font-family="Times,serif" font-size="14.00" fill="#000000">[1, 2, None, None, None]</text>
</g>
<!-- [1, None, None, None, None]&#45;&gt;[1, 2, None, None, None] -->
<g id="edge2" class="edge">
<title>[1, None, None, None, None]&#45;&gt;[1, 2, None, None, None]</title>
<path fill="none" stroke="#000000" d="M1732.579,-299.0473C1507.1174,-285.2318 1005.2617,-254.4798 781.9271,-240.7946"/>
<polygon fill="#000000" stroke="#000000" points="782.0244,-237.2941 771.829,-240.1758 781.5962,-244.281 782.0244,-237.2941"/>
</g>
<!-- [1, 3, None, None, None] -->
<g id="node19" class="node">
<title>[1, 3, None, None, None]</title>
<ellipse fill="none" stroke="#000000" cx="1692.0433" cy="-234" rx="107.4815" ry="18"/>
<text text-anchor="middle" x="1692.0433" y="-230.3" font-family="Times,serif" font-size="14.00" fill="#000000">[1, 3, None, None, None]</text>
</g>
<!-- [1, None, None, None, None]&#45;&gt;[1, 3, None, None, None] -->
<g id="edge18" class="edge">
<title>[1, None, None, None, None]&#45;&gt;[1, 3, None, None, None]</title>
<path fill="none" stroke="#000000" d="M1809.1564,-288.7542C1787.6492,-278.6989 1760.3492,-265.9352 1737.5185,-255.2611"/>
<polygon fill="#000000" stroke="#000000" points="1738.9043,-252.0455 1728.3631,-250.9807 1735.9396,-258.3867 1738.9043,-252.0455"/>
</g>
<!-- [1, 4, None, None, None] -->
<g id="node35" class="node">
<title>[1, 4, None, None, None]</title>
<ellipse fill="none" stroke="#000000" cx="2185.0433" cy="-234" rx="107.4815" ry="18"/>
<text text-anchor="middle" x="2185.0433" y="-230.3" font-family="Times,serif" font-size="14.00" fill="#000000">[1, 4, None, None, None]</text>
</g>
<!-- [1, None, None, None, None]&#45;&gt;[1, 4, None, None, None] -->
<g id="edge34" class="edge">
<title>[1, None, None, None, None]&#45;&gt;[1, 4, None, None, None]</title>
<path fill="none" stroke="#000000" d="M1915.8732,-291.1689C1972.0314,-279.2415 2050.8286,-262.5058 2108.6582,-250.2234"/>
<polygon fill="#000000" stroke="#000000" points="2109.4212,-253.6395 2118.4758,-248.1382 2107.9668,-246.7922 2109.4212,-253.6395"/>
</g>
<!-- [1, 5, None, None, None] -->
<g id="node51" class="node">
<title>[1, 5, None, None, None]</title>
<polygon fill="none" stroke="#000000" points="2475.5433,-252 2310.5433,-252 2310.5433,-216 2475.5433,-216 2475.5433,-252"/>
<text text-anchor="middle" x="2393.0433" y="-230.3" font-family="Times,serif" font-size="14.00" fill="#000000">[1, 5, None, None, None]</text>
</g>
<!-- [1, None, None, None, None]&#45;&gt;[1, 5, None, None, None] -->
<g id="edge50" class="edge">
<title>[1, None, None, None, None]&#45;&gt;[1, 5, None, None, None]</title>
<path fill="none" stroke="#000000" d="M1948.8962,-296.0201C2038.9672,-286.7648 2173.5675,-271.69 2300.4436,-252.0304"/>
<polygon fill="#000000" stroke="#000000" points="2301.0028,-255.4856 2310.3431,-250.4845 2299.9228,-248.5694 2301.0028,-255.4856"/>
</g>
<!-- [1, 2, 3, None, None] -->
<g id="node4" class="node">
<title>[1, 2, 3, None, None]</title>
<ellipse fill="none" stroke="#000000" cx="246.0433" cy="-162" rx="91.784" ry="18"/>
<text text-anchor="middle" x="246.0433" y="-158.3" font-family="Times,serif" font-size="14.00" fill="#000000">[1, 2, 3, None, None]</text>
</g>
<!-- [1, 2, None, None, None]&#45;&gt;[1, 2, 3, None, None] -->
<g id="edge3" class="edge">
<title>[1, 2, None, None, None]&#45;&gt;[1, 2, 3, None, None]</title>
<path fill="none" stroke="#000000" d="M595.5515,-221.2108C519.6478,-208.3518 403.0878,-188.6052 325.7278,-175.4995"/>
<polygon fill="#000000" stroke="#000000" points="325.9963,-171.9952 315.5521,-173.7756 324.827,-178.8969 325.9963,-171.9952"/>
</g>
<!-- [1, 2, 4, None, None] -->
<g id="node9" class="node">
<title>[1, 2, 4, None, None]</title>
<ellipse fill="none" stroke="#000000" cx="570.0433" cy="-162" rx="91.784" ry="18"/>
<text text-anchor="middle" x="570.0433" y="-158.3" font-family="Times,serif" font-size="14.00" fill="#000000">[1, 2, 4, None, None]</text>
</g>
<!-- [1, 2, None, None, None]&#45;&gt;[1, 2, 4, None, None] -->
<g id="edge8" class="edge">
<title>[1, 2, None, None, None]&#45;&gt;[1, 2, 4, None, None]</title>
<path fill="none" stroke="#000000" d="M646.3359,-216.3868C633.278,-207.0782 617.075,-195.5276 602.9643,-185.4685"/>
<polygon fill="#000000" stroke="#000000" points="604.67,-182.3862 594.4956,-179.4313 600.6067,-188.0861 604.67,-182.3862"/>
</g>
<!-- [1, 2, 5, None, None] -->
<g id="node14" class="node">
<title>[1, 2, 5, None, None]</title>
<ellipse fill="none" stroke="#000000" cx="771.0433" cy="-162" rx="91.784" ry="18"/>
<text text-anchor="middle" x="771.0433" y="-158.3" font-family="Times,serif" font-size="14.00" fill="#000000">[1, 2, 5, None, None]</text>
</g>
<!-- [1, 2, None, None, None]&#45;&gt;[1, 2, 5, None, None] -->
<g id="edge13" class="edge">
<title>[1, 2, None, None, None]&#45;&gt;[1, 2, 5, None, None]</title>
<path fill="none" stroke="#000000" d="M695.506,-216.3868C708.4346,-207.0782 724.4771,-195.5276 738.4482,-185.4685"/>
<polygon fill="#000000" stroke="#000000" points="740.7628,-188.1148 746.8331,-179.4313 736.6726,-182.4341 740.7628,-188.1148"/>
</g>
<!-- [1, 2, 3, 4, None] -->
<g id="node5" class="node">
<title>[1, 2, 3, 4, None]</title>
<ellipse fill="none" stroke="#000000" cx="76.0433" cy="-90" rx="76.0865" ry="18"/>
<text text-anchor="middle" x="76.0433" y="-86.3" font-family="Times,serif" font-size="14.00" fill="#000000">[1, 2, 3, 4, None]</text>
</g>
<!-- [1, 2, 3, None, None]&#45;&gt;[1, 2, 3, 4, None] -->
<g id="edge4" class="edge">
<title>[1, 2, 3, None, None]&#45;&gt;[1, 2, 3, 4, None]</title>
<path fill="none" stroke="#000000" d="M207.4676,-145.6621C182.3401,-135.0198 149.4046,-121.0707 122.7908,-109.799"/>
<polygon fill="#000000" stroke="#000000" points="123.8711,-106.4556 113.2979,-105.7784 121.1411,-112.9013 123.8711,-106.4556"/>
</g>
<!-- [1, 2, 3, 5, None] -->
<g id="node7" class="node">
<title>[1, 2, 3, 5, None]</title>
<ellipse fill="none" stroke="#000000" cx="246.0433" cy="-90" rx="76.0865" ry="18"/>
<text text-anchor="middle" x="246.0433" y="-86.3" font-family="Times,serif" font-size="14.00" fill="#000000">[1, 2, 3, 5, None]</text>
</g>
<!-- [1, 2, 3, None, None]&#45;&gt;[1, 2, 3, 5, None] -->
<g id="edge6" class="edge">
<title>[1, 2, 3, None, None]&#45;&gt;[1, 2, 3, 5, None]</title>
<path fill="none" stroke="#000000" d="M246.0433,-143.8314C246.0433,-136.131 246.0433,-126.9743 246.0433,-118.4166"/>
<polygon fill="#000000" stroke="#000000" points="249.5434,-118.4132 246.0433,-108.4133 242.5434,-118.4133 249.5434,-118.4132"/>
</g>
<!-- [1, 2, 3, 4, 5] -->
<g id="node6" class="node">
<title>[1, 2, 3, 4, 5]</title>
<ellipse fill="#d3d3d3" stroke="#000000" cx="76.0433" cy="-18" rx="60.3893" ry="18"/>
<text text-anchor="middle" x="76.0433" y="-14.3" font-family="Times,serif" font-size="14.00" fill="#000000">[1, 2, 3, 4, 5]</text>
</g>
<!-- [1, 2, 3, 4, None]&#45;&gt;[1, 2, 3, 4, 5] -->
<g id="edge5" class="edge">
<title>[1, 2, 3, 4, None]&#45;&gt;[1, 2, 3, 4, 5]</title>
<path fill="none" stroke="#000000" d="M76.0433,-71.8314C76.0433,-64.131 76.0433,-54.9743 76.0433,-46.4166"/>
<polygon fill="#000000" stroke="#000000" points="79.5434,-46.4132 76.0433,-36.4133 72.5434,-46.4133 79.5434,-46.4132"/>
</g>
<!-- [1, 2, 3, 5, 4] -->
<g id="node8" class="node">
<title>[1, 2, 3, 5, 4]</title>
<ellipse fill="#d3d3d3" stroke="#000000" cx="246.0433" cy="-18" rx="60.3893" ry="18"/>
<text text-anchor="middle" x="246.0433" y="-14.3" font-family="Times,serif" font-size="14.00" fill="#000000">[1, 2, 3, 5, 4]</text>
</g>
<!-- [1, 2, 3, 5, None]&#45;&gt;[1, 2, 3, 5, 4] -->
<g id="edge7" class="edge">
<title>[1, 2, 3, 5, None]&#45;&gt;[1, 2, 3, 5, 4]</title>
<path fill="none" stroke="#000000" d="M246.0433,-71.8314C246.0433,-64.131 246.0433,-54.9743 246.0433,-46.4166"/>
<polygon fill="#000000" stroke="#000000" points="249.5434,-46.4132 246.0433,-36.4133 242.5434,-46.4133 249.5434,-46.4132"/>
</g>
<!-- [1, 2, 4, 3, None] -->
<g id="node10" class="node">
<title>[1, 2, 4, 3, None]</title>
<ellipse fill="none" stroke="#000000" cx="416.0433" cy="-90" rx="76.0865" ry="18"/>
<text text-anchor="middle" x="416.0433" y="-86.3" font-family="Times,serif" font-size="14.00" fill="#000000">[1, 2, 4, 3, None]</text>
</g>
<!-- [1, 2, 4, None, None]&#45;&gt;[1, 2, 4, 3, None] -->
<g id="edge9" class="edge">
<title>[1, 2, 4, None, None]&#45;&gt;[1, 2, 4, 3, None]</title>
<path fill="none" stroke="#000000" d="M534.3255,-145.3008C512.0482,-134.8854 483.2255,-121.4099 459.6097,-110.3688"/>
<polygon fill="#000000" stroke="#000000" points="461.0492,-107.1781 450.508,-106.1134 458.0844,-113.5193 461.0492,-107.1781"/>
</g>
<!-- [1, 2, 4, 5, None] -->
<g id="node12" class="node">
<title>[1, 2, 4, 5, None]</title>
<ellipse fill="none" stroke="#000000" cx="586.0433" cy="-90" rx="76.0865" ry="18"/>
<text text-anchor="middle" x="586.0433" y="-86.3" font-family="Times,serif" font-size="14.00" fill="#000000">[1, 2, 4, 5, None]</text>
</g>
<!-- [1, 2, 4, None, None]&#45;&gt;[1, 2, 4, 5, None] -->
<g id="edge11" class="edge">
<title>[1, 2, 4, None, None]&#45;&gt;[1, 2, 4, 5, None]</title>
<path fill="none" stroke="#000000" d="M574.0807,-143.8314C575.7919,-136.131 577.8267,-126.9743 579.7284,-118.4166"/>
<polygon fill="#000000" stroke="#000000" points="583.1987,-118.9344 581.9514,-108.4133 576.3654,-117.4159 583.1987,-118.9344"/>
</g>
<!-- [1, 2, 4, 3, 5] -->
<g id="node11" class="node">
<title>[1, 2, 4, 3, 5]</title>
<ellipse fill="#d3d3d3" stroke="#000000" cx="416.0433" cy="-18" rx="60.3893" ry="18"/>
<text text-anchor="middle" x="416.0433" y="-14.3" font-family="Times,serif" font-size="14.00" fill="#000000">[1, 2, 4, 3, 5]</text>
</g>
<!-- [1, 2, 4, 3, None]&#45;&gt;[1, 2, 4, 3, 5] -->
<g id="edge10" class="edge">
<title>[1, 2, 4, 3, None]&#45;&gt;[1, 2, 4, 3, 5]</title>
<path fill="none" stroke="#000000" d="M416.0433,-71.8314C416.0433,-64.131 416.0433,-54.9743 416.0433,-46.4166"/>
<polygon fill="#000000" stroke="#000000" points="419.5434,-46.4132 416.0433,-36.4133 412.5434,-46.4133 419.5434,-46.4132"/>
</g>
<!-- [1, 2, 4, 5, 3] -->
<g id="node13" class="node">
<title>[1, 2, 4, 5, 3]</title>
<ellipse fill="#d3d3d3" stroke="#000000" cx="586.0433" cy="-18" rx="60.3893" ry="18"/>
<text text-anchor="middle" x="586.0433" y="-14.3" font-family="Times,serif" font-size="14.00" fill="#000000">[1, 2, 4, 5, 3]</text>
</g>
<!-- [1, 2, 4, 5, None]&#45;&gt;[1, 2, 4, 5, 3] -->
<g id="edge12" class="edge">
<title>[1, 2, 4, 5, None]&#45;&gt;[1, 2, 4, 5, 3]</title>
<path fill="none" stroke="#000000" d="M586.0433,-71.8314C586.0433,-64.131 586.0433,-54.9743 586.0433,-46.4166"/>
<polygon fill="#000000" stroke="#000000" points="589.5434,-46.4132 586.0433,-36.4133 582.5434,-46.4133 589.5434,-46.4132"/>
</g>
<!-- [1, 2, 5, 3, None] -->
<g id="node15" class="node">
<title>[1, 2, 5, 3, None]</title>
<ellipse fill="none" stroke="#000000" cx="756.0433" cy="-90" rx="76.0865" ry="18"/>
<text text-anchor="middle" x="756.0433" y="-86.3" font-family="Times,serif" font-size="14.00" fill="#000000">[1, 2, 5, 3, None]</text>
</g>
<!-- [1, 2, 5, None, None]&#45;&gt;[1, 2, 5, 3, None] -->
<g id="edge14" class="edge">
<title>[1, 2, 5, None, None]&#45;&gt;[1, 2, 5, 3, None]</title>
<path fill="none" stroke="#000000" d="M767.2581,-143.8314C765.6539,-136.131 763.7462,-126.9743 761.9634,-118.4166"/>
<polygon fill="#000000" stroke="#000000" points="765.3454,-117.4892 759.8793,-108.4133 758.4925,-118.9169 765.3454,-117.4892"/>
</g>
<!-- [1, 2, 5, 4, None] -->
<g id="node17" class="node">
<title>[1, 2, 5, 4, None]</title>
<ellipse fill="none" stroke="#000000" cx="926.0433" cy="-90" rx="76.0865" ry="18"/>
<text text-anchor="middle" x="926.0433" y="-86.3" font-family="Times,serif" font-size="14.00" fill="#000000">[1, 2, 5, 4, None]</text>
</g>
<!-- [1, 2, 5, None, None]&#45;&gt;[1, 2, 5, 4, None] -->
<g id="edge16" class="edge">
<title>[1, 2, 5, None, None]&#45;&gt;[1, 2, 5, 4, None]</title>
<path fill="none" stroke="#000000" d="M806.993,-145.3008C829.4149,-134.8854 858.4247,-121.4099 882.1939,-110.3688"/>
<polygon fill="#000000" stroke="#000000" points="883.7599,-113.5005 891.3547,-106.1134 880.8109,-107.152 883.7599,-113.5005"/>
</g>
<!-- [1, 2, 5, 3, 4] -->
<g id="node16" class="node">
<title>[1, 2, 5, 3, 4]</title>
<ellipse fill="#d3d3d3" stroke="#000000" cx="756.0433" cy="-18" rx="60.3893" ry="18"/>
<text text-anchor="middle" x="756.0433" y="-14.3" font-family="Times,serif" font-size="14.00" fill="#000000">[1, 2, 5, 3, 4]</text>
</g>
<!-- [1, 2, 5, 3, None]&#45;&gt;[1, 2, 5, 3, 4] -->
<g id="edge15" class="edge">
<title>[1, 2, 5, 3, None]&#45;&gt;[1, 2, 5, 3, 4]</title>
<path fill="none" stroke="#000000" d="M756.0433,-71.8314C756.0433,-64.131 756.0433,-54.9743 756.0433,-46.4166"/>
<polygon fill="#000000" stroke="#000000" points="759.5434,-46.4132 756.0433,-36.4133 752.5434,-46.4133 759.5434,-46.4132"/>
</g>
<!-- [1, 2, 5, 4, 3] -->
<g id="node18" class="node">
<title>[1, 2, 5, 4, 3]</title>
<ellipse fill="#d3d3d3" stroke="#000000" cx="926.0433" cy="-18" rx="60.3893" ry="18"/>
<text text-anchor="middle" x="926.0433" y="-14.3" font-family="Times,serif" font-size="14.00" fill="#000000">[1, 2, 5, 4, 3]</text>
</g>
<!-- [1, 2, 5, 4, None]&#45;&gt;[1, 2, 5, 4, 3] -->
<g id="edge17" class="edge">
<title>[1, 2, 5, 4, None]&#45;&gt;[1, 2, 5, 4, 3]</title>
<path fill="none" stroke="#000000" d="M926.0433,-71.8314C926.0433,-64.131 926.0433,-54.9743 926.0433,-46.4166"/>
<polygon fill="#000000" stroke="#000000" points="929.5434,-46.4132 926.0433,-36.4133 922.5434,-46.4133 929.5434,-46.4132"/>
</g>
<!-- [1, 3, 2, None, None] -->
<g id="node20" class="node">
<title>[1, 3, 2, None, None]</title>
<ellipse fill="none" stroke="#000000" cx="1266.0433" cy="-162" rx="91.784" ry="18"/>
<text text-anchor="middle" x="1266.0433" y="-158.3" font-family="Times,serif" font-size="14.00" fill="#000000">[1, 3, 2, None, None]</text>
</g>
<!-- [1, 3, None, None, None]&#45;&gt;[1, 3, 2, None, None] -->
<g id="edge19" class="edge">
<title>[1, 3, None, None, None]&#45;&gt;[1, 3, 2, None, None]</title>
<path fill="none" stroke="#000000" d="M1616.3739,-221.2108C1540.2915,-208.3518 1423.4573,-188.6052 1345.9153,-175.4995"/>
<polygon fill="#000000" stroke="#000000" points="1346.1592,-171.9912 1335.7157,-173.7756 1344.9925,-178.8933 1346.1592,-171.9912"/>
</g>
<!-- [1, 3, 4, None, None] -->
<g id="node25" class="node">
<title>[1, 3, 4, None, None]</title>
<ellipse fill="none" stroke="#000000" cx="1591.0433" cy="-162" rx="91.784" ry="18"/>
<text text-anchor="middle" x="1591.0433" y="-158.3" font-family="Times,serif" font-size="14.00" fill="#000000">[1, 3, 4, None, None]</text>
</g>
<!-- [1, 3, None, None, None]&#45;&gt;[1, 3, 4, None, None] -->
<g id="edge24" class="edge">
<title>[1, 3, None, None, None]&#45;&gt;[1, 3, 4, None, None]</title>
<path fill="none" stroke="#000000" d="M1667.3359,-216.3868C1654.278,-207.0782 1638.075,-195.5276 1623.9643,-185.4685"/>
<polygon fill="#000000" stroke="#000000" points="1625.67,-182.3862 1615.4956,-179.4313 1621.6067,-188.0861 1625.67,-182.3862"/>
</g>
<!-- [1, 3, 5, None, None] -->
<g id="node30" class="node">
<title>[1, 3, 5, None, None]</title>
<ellipse fill="none" stroke="#000000" cx="1792.0433" cy="-162" rx="91.784" ry="18"/>
<text text-anchor="middle" x="1792.0433" y="-158.3" font-family="Times,serif" font-size="14.00" fill="#000000">[1, 3, 5, None, None]</text>
</g>
<!-- [1, 3, None, None, None]&#45;&gt;[1, 3, 5, None, None] -->
<g id="edge29" class="edge">
<title>[1, 3, None, None, None]&#45;&gt;[1, 3, 5, None, None]</title>
<path fill="none" stroke="#000000" d="M1716.506,-216.3868C1729.4346,-207.0782 1745.4771,-195.5276 1759.4482,-185.4685"/>
<polygon fill="#000000" stroke="#000000" points="1761.7628,-188.1148 1767.8331,-179.4313 1757.6726,-182.4341 1761.7628,-188.1148"/>
</g>
<!-- [1, 3, 2, 4, None] -->
<g id="node21" class="node">
<title>[1, 3, 2, 4, None]</title>
<ellipse fill="none" stroke="#000000" cx="1096.0433" cy="-90" rx="76.0865" ry="18"/>
<text text-anchor="middle" x="1096.0433" y="-86.3" font-family="Times,serif" font-size="14.00" fill="#000000">[1, 3, 2, 4, None]</text>
</g>
<!-- [1, 3, 2, None, None]&#45;&gt;[1, 3, 2, 4, None] -->
<g id="edge20" class="edge">
<title>[1, 3, 2, None, None]&#45;&gt;[1, 3, 2, 4, None]</title>
<path fill="none" stroke="#000000" d="M1227.4676,-145.6621C1202.3401,-135.0198 1169.4046,-121.0707 1142.7908,-109.799"/>
<polygon fill="#000000" stroke="#000000" points="1143.8711,-106.4556 1133.2979,-105.7784 1141.1411,-112.9013 1143.8711,-106.4556"/>
</g>
<!-- [1, 3, 2, 5, None] -->
<g id="node23" class="node">
<title>[1, 3, 2, 5, None]</title>
<ellipse fill="none" stroke="#000000" cx="1266.0433" cy="-90" rx="76.0865" ry="18"/>
<text text-anchor="middle" x="1266.0433" y="-86.3" font-family="Times,serif" font-size="14.00" fill="#000000">[1, 3, 2, 5, None]</text>
</g>
<!-- [1, 3, 2, None, None]&#45;&gt;[1, 3, 2, 5, None] -->
<g id="edge22" class="edge">
<title>[1, 3, 2, None, None]&#45;&gt;[1, 3, 2, 5, None]</title>
<path fill="none" stroke="#000000" d="M1266.0433,-143.8314C1266.0433,-136.131 1266.0433,-126.9743 1266.0433,-118.4166"/>
<polygon fill="#000000" stroke="#000000" points="1269.5434,-118.4132 1266.0433,-108.4133 1262.5434,-118.4133 1269.5434,-118.4132"/>
</g>
<!-- [1, 3, 2, 4, 5] -->
<g id="node22" class="node">
<title>[1, 3, 2, 4, 5]</title>
<ellipse fill="#d3d3d3" stroke="#000000" cx="1096.0433" cy="-18" rx="60.3893" ry="18"/>
<text text-anchor="middle" x="1096.0433" y="-14.3" font-family="Times,serif" font-size="14.00" fill="#000000">[1, 3, 2, 4, 5]</text>
</g>
<!-- [1, 3, 2, 4, None]&#45;&gt;[1, 3, 2, 4, 5] -->
<g id="edge21" class="edge">
<title>[1, 3, 2, 4, None]&#45;&gt;[1, 3, 2, 4, 5]</title>
<path fill="none" stroke="#000000" d="M1096.0433,-71.8314C1096.0433,-64.131 1096.0433,-54.9743 1096.0433,-46.4166"/>
<polygon fill="#000000" stroke="#000000" points="1099.5434,-46.4132 1096.0433,-36.4133 1092.5434,-46.4133 1099.5434,-46.4132"/>
</g>
<!-- [1, 3, 2, 5, 4] -->
<g id="node24" class="node">
<title>[1, 3, 2, 5, 4]</title>
<ellipse fill="#d3d3d3" stroke="#000000" cx="1266.0433" cy="-18" rx="60.3893" ry="18"/>
<text text-anchor="middle" x="1266.0433" y="-14.3" font-family="Times,serif" font-size="14.00" fill="#000000">[1, 3, 2, 5, 4]</text>
</g>
<!-- [1, 3, 2, 5, None]&#45;&gt;[1, 3, 2, 5, 4] -->
<g id="edge23" class="edge">
<title>[1, 3, 2, 5, None]&#45;&gt;[1, 3, 2, 5, 4]</title>
<path fill="none" stroke="#000000" d="M1266.0433,-71.8314C1266.0433,-64.131 1266.0433,-54.9743 1266.0433,-46.4166"/>
<polygon fill="#000000" stroke="#000000" points="1269.5434,-46.4132 1266.0433,-36.4133 1262.5434,-46.4133 1269.5434,-46.4132"/>
</g>
<!-- [1, 3, 4, 2, None] -->
<g id="node26" class="node">
<title>[1, 3, 4, 2, None]</title>
<ellipse fill="none" stroke="#000000" cx="1436.0433" cy="-90" rx="76.0865" ry="18"/>
<text text-anchor="middle" x="1436.0433" y="-86.3" font-family="Times,serif" font-size="14.00" fill="#000000">[1, 3, 4, 2, None]</text>
</g>
<!-- [1, 3, 4, None, None]&#45;&gt;[1, 3, 4, 2, None] -->
<g id="edge25" class="edge">
<title>[1, 3, 4, None, None]&#45;&gt;[1, 3, 4, 2, None]</title>
<path fill="none" stroke="#000000" d="M1555.0935,-145.3008C1532.6716,-134.8854 1503.6618,-121.4099 1479.8926,-110.3688"/>
<polygon fill="#000000" stroke="#000000" points="1481.2756,-107.152 1470.7318,-106.1134 1478.3266,-113.5005 1481.2756,-107.152"/>
</g>
<!-- [1, 3, 4, 5, None] -->
<g id="node28" class="node">
<title>[1, 3, 4, 5, None]</title>
<ellipse fill="none" stroke="#000000" cx="1606.0433" cy="-90" rx="76.0865" ry="18"/>
<text text-anchor="middle" x="1606.0433" y="-86.3" font-family="Times,serif" font-size="14.00" fill="#000000">[1, 3, 4, 5, None]</text>
</g>
<!-- [1, 3, 4, None, None]&#45;&gt;[1, 3, 4, 5, None] -->
<g id="edge27" class="edge">
<title>[1, 3, 4, None, None]&#45;&gt;[1, 3, 4, 5, None]</title>
<path fill="none" stroke="#000000" d="M1594.8284,-143.8314C1596.4326,-136.131 1598.3403,-126.9743 1600.1231,-118.4166"/>
<polygon fill="#000000" stroke="#000000" points="1603.594,-118.9169 1602.2072,-108.4133 1596.7411,-117.4892 1603.594,-118.9169"/>
</g>
<!-- [1, 3, 4, 2, 5] -->
<g id="node27" class="node">
<title>[1, 3, 4, 2, 5]</title>
<ellipse fill="#d3d3d3" stroke="#000000" cx="1436.0433" cy="-18" rx="60.3893" ry="18"/>
<text text-anchor="middle" x="1436.0433" y="-14.3" font-family="Times,serif" font-size="14.00" fill="#000000">[1, 3, 4, 2, 5]</text>
</g>
<!-- [1, 3, 4, 2, None]&#45;&gt;[1, 3, 4, 2, 5] -->
<g id="edge26" class="edge">
<title>[1, 3, 4, 2, None]&#45;&gt;[1, 3, 4, 2, 5]</title>
<path fill="none" stroke="#000000" d="M1436.0433,-71.8314C1436.0433,-64.131 1436.0433,-54.9743 1436.0433,-46.4166"/>
<polygon fill="#000000" stroke="#000000" points="1439.5434,-46.4132 1436.0433,-36.4133 1432.5434,-46.4133 1439.5434,-46.4132"/>
</g>
<!-- [1, 3, 4, 5, 2] -->
<g id="node29" class="node">
<title>[1, 3, 4, 5, 2]</title>
<ellipse fill="#d3d3d3" stroke="#000000" cx="1606.0433" cy="-18" rx="60.3893" ry="18"/>
<text text-anchor="middle" x="1606.0433" y="-14.3" font-family="Times,serif" font-size="14.00" fill="#000000">[1, 3, 4, 5, 2]</text>
</g>
<!-- [1, 3, 4, 5, None]&#45;&gt;[1, 3, 4, 5, 2] -->
<g id="edge28" class="edge">
<title>[1, 3, 4, 5, None]&#45;&gt;[1, 3, 4, 5, 2]</title>
<path fill="none" stroke="#000000" d="M1606.0433,-71.8314C1606.0433,-64.131 1606.0433,-54.9743 1606.0433,-46.4166"/>
<polygon fill="#000000" stroke="#000000" points="1609.5434,-46.4132 1606.0433,-36.4133 1602.5434,-46.4133 1609.5434,-46.4132"/>
</g>
<!-- [1, 3, 5, 2, None] -->
<g id="node31" class="node">
<title>[1, 3, 5, 2, None]</title>
<ellipse fill="none" stroke="#000000" cx="1776.0433" cy="-90" rx="76.0865" ry="18"/>
<text text-anchor="middle" x="1776.0433" y="-86.3" font-family="Times,serif" font-size="14.00" fill="#000000">[1, 3, 5, 2, None]</text>
</g>
<!-- [1, 3, 5, None, None]&#45;&gt;[1, 3, 5, 2, None] -->
<g id="edge30" class="edge">
<title>[1, 3, 5, None, None]&#45;&gt;[1, 3, 5, 2, None]</title>
<path fill="none" stroke="#000000" d="M1788.0058,-143.8314C1786.2946,-136.131 1784.2598,-126.9743 1782.3581,-118.4166"/>
<polygon fill="#000000" stroke="#000000" points="1785.7211,-117.4159 1780.1351,-108.4133 1778.8878,-118.9344 1785.7211,-117.4159"/>
</g>
<!-- [1, 3, 5, 4, None] -->
<g id="node33" class="node">
<title>[1, 3, 5, 4, None]</title>
<ellipse fill="none" stroke="#000000" cx="1946.0433" cy="-90" rx="76.0865" ry="18"/>
<text text-anchor="middle" x="1946.0433" y="-86.3" font-family="Times,serif" font-size="14.00" fill="#000000">[1, 3, 5, 4, None]</text>
</g>
<!-- [1, 3, 5, None, None]&#45;&gt;[1, 3, 5, 4, None] -->
<g id="edge32" class="edge">
<title>[1, 3, 5, None, None]&#45;&gt;[1, 3, 5, 4, None]</title>
<path fill="none" stroke="#000000" d="M1827.761,-145.3008C1850.0383,-134.8854 1878.861,-121.4099 1902.4768,-110.3688"/>
<polygon fill="#000000" stroke="#000000" points="1904.0021,-113.5193 1911.5785,-106.1134 1901.0373,-107.1781 1904.0021,-113.5193"/>
</g>
<!-- [1, 3, 5, 2, 4] -->
<g id="node32" class="node">
<title>[1, 3, 5, 2, 4]</title>
<ellipse fill="#d3d3d3" stroke="#000000" cx="1776.0433" cy="-18" rx="60.3893" ry="18"/>
<text text-anchor="middle" x="1776.0433" y="-14.3" font-family="Times,serif" font-size="14.00" fill="#000000">[1, 3, 5, 2, 4]</text>
</g>
<!-- [1, 3, 5, 2, None]&#45;&gt;[1, 3, 5, 2, 4] -->
<g id="edge31" class="edge">
<title>[1, 3, 5, 2, None]&#45;&gt;[1, 3, 5, 2, 4]</title>
<path fill="none" stroke="#000000" d="M1776.0433,-71.8314C1776.0433,-64.131 1776.0433,-54.9743 1776.0433,-46.4166"/>
<polygon fill="#000000" stroke="#000000" points="1779.5434,-46.4132 1776.0433,-36.4133 1772.5434,-46.4133 1779.5434,-46.4132"/>
</g>
<!-- [1, 3, 5, 4, 2] -->
<g id="node34" class="node">
<title>[1, 3, 5, 4, 2]</title>
<ellipse fill="#d3d3d3" stroke="#000000" cx="1946.0433" cy="-18" rx="60.3893" ry="18"/>
<text text-anchor="middle" x="1946.0433" y="-14.3" font-family="Times,serif" font-size="14.00" fill="#000000">[1, 3, 5, 4, 2]</text>
</g>
<!-- [1, 3, 5, 4, None]&#45;&gt;[1, 3, 5, 4, 2] -->
<g id="edge33" class="edge">
<title>[1, 3, 5, 4, None]&#45;&gt;[1, 3, 5, 4, 2]</title>
<path fill="none" stroke="#000000" d="M1946.0433,-71.8314C1946.0433,-64.131 1946.0433,-54.9743 1946.0433,-46.4166"/>
<polygon fill="#000000" stroke="#000000" points="1949.5434,-46.4132 1946.0433,-36.4133 1942.5434,-46.4133 1949.5434,-46.4132"/>
</g>
<!-- [1, 4, 2, None, None] -->
<g id="node36" class="node">
<title>[1, 4, 2, None, None]</title>
<ellipse fill="none" stroke="#000000" cx="2185.0433" cy="-162" rx="91.784" ry="18"/>
<text text-anchor="middle" x="2185.0433" y="-158.3" font-family="Times,serif" font-size="14.00" fill="#000000">[1, 4, 2, None, None]</text>
</g>
<!-- [1, 4, None, None, None]&#45;&gt;[1, 4, 2, None, None] -->
<g id="edge35" class="edge">
<title>[1, 4, None, None, None]&#45;&gt;[1, 4, 2, None, None]</title>
<path fill="none" stroke="#000000" d="M2185.0433,-215.8314C2185.0433,-208.131 2185.0433,-198.9743 2185.0433,-190.4166"/>
<polygon fill="#000000" stroke="#000000" points="2188.5434,-190.4132 2185.0433,-180.4133 2181.5434,-190.4133 2188.5434,-190.4132"/>
</g>
<!-- [1, 4, 3, None, None] -->
<g id="node41" class="node">
<title>[1, 4, 3, None, None]</title>
<ellipse fill="none" stroke="#000000" cx="2456.0433" cy="-162" rx="91.784" ry="18"/>
<text text-anchor="middle" x="2456.0433" y="-158.3" font-family="Times,serif" font-size="14.00" fill="#000000">[1, 4, 3, None, None]</text>
</g>
<!-- [1, 4, None, None, None]&#45;&gt;[1, 4, 3, None, None] -->
<g id="edge40" class="edge">
<title>[1, 4, None, None, None]&#45;&gt;[1, 4, 3, None, None]</title>
<path fill="none" stroke="#000000" d="M2242.5154,-218.7307C2286.2297,-207.1165 2346.38,-191.1356 2391.7019,-179.0944"/>
<polygon fill="#000000" stroke="#000000" points="2392.6606,-182.4612 2401.4265,-176.5107 2390.8631,-175.6959 2392.6606,-182.4612"/>
</g>
<!-- [1, 4, 5, None, None] -->
<g id="node46" class="node">
<title>[1, 4, 5, None, None]</title>
<ellipse fill="none" stroke="#000000" cx="2796.0433" cy="-162" rx="91.784" ry="18"/>
<text text-anchor="middle" x="2796.0433" y="-158.3" font-family="Times,serif" font-size="14.00" fill="#000000">[1, 4, 5, None, None]</text>
</g>
<!-- [1, 4, None, None, None]&#45;&gt;[1, 4, 5, None, None] -->
<g id="edge45" class="edge">
<title>[1, 4, None, None, None]&#45;&gt;[1, 4, 5, None, None]</title>
<path fill="none" stroke="#000000" d="M2262.3454,-221.5061C2275.2534,-219.5631 2288.5165,-217.6543 2301.0433,-216 2440.8655,-197.5347 2603.5127,-180.6733 2703.1048,-170.8711"/>
<polygon fill="#000000" stroke="#000000" points="2703.5288,-174.3464 2713.1392,-169.8863 2702.8451,-167.3798 2703.5288,-174.3464"/>
</g>
<!-- [1, 4, 2, 3, None] -->
<g id="node37" class="node">
<title>[1, 4, 2, 3, None]</title>
<ellipse fill="none" stroke="#000000" cx="2116.0433" cy="-90" rx="76.0865" ry="18"/>
<text text-anchor="middle" x="2116.0433" y="-86.3" font-family="Times,serif" font-size="14.00" fill="#000000">[1, 4, 2, 3, None]</text>
</g>
<!-- [1, 4, 2, None, None]&#45;&gt;[1, 4, 2, 3, None] -->
<g id="edge36" class="edge">
<title>[1, 4, 2, None, None]&#45;&gt;[1, 4, 2, 3, None]</title>
<path fill="none" stroke="#000000" d="M2167.9871,-144.2022C2159.5478,-135.396 2149.2187,-124.6179 2140.0005,-114.9989"/>
<polygon fill="#000000" stroke="#000000" points="2142.3493,-112.3913 2132.9032,-107.593 2137.2954,-117.2346 2142.3493,-112.3913"/>
</g>
<!-- [1, 4, 2, 5, None] -->
<g id="node39" class="node">
<title>[1, 4, 2, 5, None]</title>
<ellipse fill="none" stroke="#000000" cx="2286.0433" cy="-90" rx="76.0865" ry="18"/>
<text text-anchor="middle" x="2286.0433" y="-86.3" font-family="Times,serif" font-size="14.00" fill="#000000">[1, 4, 2, 5, None]</text>
</g>
<!-- [1, 4, 2, None, None]&#45;&gt;[1, 4, 2, 5, None] -->
<g id="edge38" class="edge">
<title>[1, 4, 2, None, None]&#45;&gt;[1, 4, 2, 5, None]</title>
<path fill="none" stroke="#000000" d="M2209.4925,-144.5708C2222.6429,-135.1963 2239.0388,-123.5081 2253.2792,-113.3565"/>
<polygon fill="#000000" stroke="#000000" points="2255.708,-115.9235 2261.8191,-107.2687 2251.6446,-110.2235 2255.708,-115.9235"/>
</g>
<!-- [1, 4, 2, 3, 5] -->
<g id="node38" class="node">
<title>[1, 4, 2, 3, 5]</title>
<ellipse fill="#d3d3d3" stroke="#000000" cx="2116.0433" cy="-18" rx="60.3893" ry="18"/>
<text text-anchor="middle" x="2116.0433" y="-14.3" font-family="Times,serif" font-size="14.00" fill="#000000">[1, 4, 2, 3, 5]</text>
</g>
<!-- [1, 4, 2, 3, None]&#45;&gt;[1, 4, 2, 3, 5] -->
<g id="edge37" class="edge">
<title>[1, 4, 2, 3, None]&#45;&gt;[1, 4, 2, 3, 5]</title>
<path fill="none" stroke="#000000" d="M2116.0433,-71.8314C2116.0433,-64.131 2116.0433,-54.9743 2116.0433,-46.4166"/>
<polygon fill="#000000" stroke="#000000" points="2119.5434,-46.4132 2116.0433,-36.4133 2112.5434,-46.4133 2119.5434,-46.4132"/>
</g>
<!-- [1, 4, 2, 5, 3] -->
<g id="node40" class="node">
<title>[1, 4, 2, 5, 3]</title>
<ellipse fill="#d3d3d3" stroke="#000000" cx="2286.0433" cy="-18" rx="60.3893" ry="18"/>
<text text-anchor="middle" x="2286.0433" y="-14.3" font-family="Times,serif" font-size="14.00" fill="#000000">[1, 4, 2, 5, 3]</text>
</g>
<!-- [1, 4, 2, 5, None]&#45;&gt;[1, 4, 2, 5, 3] -->
<g id="edge39" class="edge">
<title>[1, 4, 2, 5, None]&#45;&gt;[1, 4, 2, 5, 3]</title>
<path fill="none" stroke="#000000" d="M2286.0433,-71.8314C2286.0433,-64.131 2286.0433,-54.9743 2286.0433,-46.4166"/>
<polygon fill="#000000" stroke="#000000" points="2289.5434,-46.4132 2286.0433,-36.4133 2282.5434,-46.4133 2289.5434,-46.4132"/>
</g>
<!-- [1, 4, 3, 2, None] -->
<g id="node42" class="node">
<title>[1, 4, 3, 2, None]</title>
<ellipse fill="none" stroke="#000000" cx="2456.0433" cy="-90" rx="76.0865" ry="18"/>
<text text-anchor="middle" x="2456.0433" y="-86.3" font-family="Times,serif" font-size="14.00" fill="#000000">[1, 4, 3, 2, None]</text>
</g>
<!-- [1, 4, 3, None, None]&#45;&gt;[1, 4, 3, 2, None] -->
<g id="edge41" class="edge">
<title>[1, 4, 3, None, None]&#45;&gt;[1, 4, 3, 2, None]</title>
<path fill="none" stroke="#000000" d="M2456.0433,-143.8314C2456.0433,-136.131 2456.0433,-126.9743 2456.0433,-118.4166"/>
<polygon fill="#000000" stroke="#000000" points="2459.5434,-118.4132 2456.0433,-108.4133 2452.5434,-118.4133 2459.5434,-118.4132"/>
</g>
<!-- [1, 4, 3, 5, None] -->
<g id="node44" class="node">
<title>[1, 4, 3, 5, None]</title>
<ellipse fill="none" stroke="#000000" cx="2626.0433" cy="-90" rx="76.0865" ry="18"/>
<text text-anchor="middle" x="2626.0433" y="-86.3" font-family="Times,serif" font-size="14.00" fill="#000000">[1, 4, 3, 5, None]</text>
</g>
<!-- [1, 4, 3, None, None]&#45;&gt;[1, 4, 3, 5, None] -->
<g id="edge43" class="edge">
<title>[1, 4, 3, None, None]&#45;&gt;[1, 4, 3, 5, None]</title>
<path fill="none" stroke="#000000" d="M2494.6189,-145.6621C2519.7464,-135.0198 2552.6819,-121.0707 2579.2957,-109.799"/>
<polygon fill="#000000" stroke="#000000" points="2580.9454,-112.9013 2588.7886,-105.7784 2578.2154,-106.4556 2580.9454,-112.9013"/>
</g>
<!-- [1, 4, 3, 2, 5] -->
<g id="node43" class="node">
<title>[1, 4, 3, 2, 5]</title>
<ellipse fill="#d3d3d3" stroke="#000000" cx="2456.0433" cy="-18" rx="60.3893" ry="18"/>
<text text-anchor="middle" x="2456.0433" y="-14.3" font-family="Times,serif" font-size="14.00" fill="#000000">[1, 4, 3, 2, 5]</text>
</g>
<!-- [1, 4, 3, 2, None]&#45;&gt;[1, 4, 3, 2, 5] -->
<g id="edge42" class="edge">
<title>[1, 4, 3, 2, None]&#45;&gt;[1, 4, 3, 2, 5]</title>
<path fill="none" stroke="#000000" d="M2456.0433,-71.8314C2456.0433,-64.131 2456.0433,-54.9743 2456.0433,-46.4166"/>
<polygon fill="#000000" stroke="#000000" points="2459.5434,-46.4132 2456.0433,-36.4133 2452.5434,-46.4133 2459.5434,-46.4132"/>
</g>
<!-- [1, 4, 3, 5, 2] -->
<g id="node45" class="node">
<title>[1, 4, 3, 5, 2]</title>
<ellipse fill="#d3d3d3" stroke="#000000" cx="2626.0433" cy="-18" rx="60.3893" ry="18"/>
<text text-anchor="middle" x="2626.0433" y="-14.3" font-family="Times,serif" font-size="14.00" fill="#000000">[1, 4, 3, 5, 2]</text>
</g>
<!-- [1, 4, 3, 5, None]&#45;&gt;[1, 4, 3, 5, 2] -->
<g id="edge44" class="edge">
<title>[1, 4, 3, 5, None]&#45;&gt;[1, 4, 3, 5, 2]</title>
<path fill="none" stroke="#000000" d="M2626.0433,-71.8314C2626.0433,-64.131 2626.0433,-54.9743 2626.0433,-46.4166"/>
<polygon fill="#000000" stroke="#000000" points="2629.5434,-46.4132 2626.0433,-36.4133 2622.5434,-46.4133 2629.5434,-46.4132"/>
</g>
<!-- [1, 4, 5, 2, None] -->
<g id="node47" class="node">
<title>[1, 4, 5, 2, None]</title>
<ellipse fill="none" stroke="#000000" cx="2796.0433" cy="-90" rx="76.0865" ry="18"/>
<text text-anchor="middle" x="2796.0433" y="-86.3" font-family="Times,serif" font-size="14.00" fill="#000000">[1, 4, 5, 2, None]</text>
</g>
<!-- [1, 4, 5, None, None]&#45;&gt;[1, 4, 5, 2, None] -->
<g id="edge46" class="edge">
<title>[1, 4, 5, None, None]&#45;&gt;[1, 4, 5, 2, None]</title>
<path fill="none" stroke="#000000" d="M2796.0433,-143.8314C2796.0433,-136.131 2796.0433,-126.9743 2796.0433,-118.4166"/>
<polygon fill="#000000" stroke="#000000" points="2799.5434,-118.4132 2796.0433,-108.4133 2792.5434,-118.4133 2799.5434,-118.4132"/>
</g>
<!-- [1, 4, 5, 3, None] -->
<g id="node49" class="node">
<title>[1, 4, 5, 3, None]</title>
<ellipse fill="none" stroke="#000000" cx="2966.0433" cy="-90" rx="76.0865" ry="18"/>
<text text-anchor="middle" x="2966.0433" y="-86.3" font-family="Times,serif" font-size="14.00" fill="#000000">[1, 4, 5, 3, None]</text>
</g>
<!-- [1, 4, 5, None, None]&#45;&gt;[1, 4, 5, 3, None] -->
<g id="edge48" class="edge">
<title>[1, 4, 5, None, None]&#45;&gt;[1, 4, 5, 3, None]</title>
<path fill="none" stroke="#000000" d="M2834.6189,-145.6621C2859.7464,-135.0198 2892.6819,-121.0707 2919.2957,-109.799"/>
<polygon fill="#000000" stroke="#000000" points="2920.9454,-112.9013 2928.7886,-105.7784 2918.2154,-106.4556 2920.9454,-112.9013"/>
</g>
<!-- [1, 4, 5, 2, 3] -->
<g id="node48" class="node">
<title>[1, 4, 5, 2, 3]</title>
<ellipse fill="#d3d3d3" stroke="#000000" cx="2796.0433" cy="-18" rx="60.3893" ry="18"/>
<text text-anchor="middle" x="2796.0433" y="-14.3" font-family="Times,serif" font-size="14.00" fill="#000000">[1, 4, 5, 2, 3]</text>
</g>
<!-- [1, 4, 5, 2, None]&#45;&gt;[1, 4, 5, 2, 3] -->
<g id="edge47" class="edge">
<title>[1, 4, 5, 2, None]&#45;&gt;[1, 4, 5, 2, 3]</title>
<path fill="none" stroke="#000000" d="M2796.0433,-71.8314C2796.0433,-64.131 2796.0433,-54.9743 2796.0433,-46.4166"/>
<polygon fill="#000000" stroke="#000000" points="2799.5434,-46.4132 2796.0433,-36.4133 2792.5434,-46.4133 2799.5434,-46.4132"/>
</g>
<!-- [1, 4, 5, 3, 2] -->
<g id="node50" class="node">
<title>[1, 4, 5, 3, 2]</title>
<ellipse fill="#d3d3d3" stroke="#000000" cx="2966.0433" cy="-18" rx="60.3893" ry="18"/>
<text text-anchor="middle" x="2966.0433" y="-14.3" font-family="Times,serif" font-size="14.00" fill="#000000">[1, 4, 5, 3, 2]</text>
</g>
<!-- [1, 4, 5, 3, None]&#45;&gt;[1, 4, 5, 3, 2] -->
<g id="edge49" class="edge">
<title>[1, 4, 5, 3, None]&#45;&gt;[1, 4, 5, 3, 2]</title>
<path fill="none" stroke="#000000" d="M2966.0433,-71.8314C2966.0433,-64.131 2966.0433,-54.9743 2966.0433,-46.4166"/>
<polygon fill="#000000" stroke="#000000" points="2969.5434,-46.4132 2966.0433,-36.4133 2962.5434,-46.4133 2969.5434,-46.4132"/>
</g>
</g>
</svg>
